<svg width="2356" height="519" viewBox="0 0 2356 519" fill="none" xmlns="http://www.w3.org/2000/svg">
<path d="M701.4 369.6V380.8C707.8 381.44 714.2 381.76 720.6 381.76C740.44 381.76 760.493 378.56 780.76 372.16L788.44 419.2C764.547 425.6 740.867 428.8 717.4 428.8C687.533 428.8 665.88 421.867 652.44 408C639.213 393.92 632.6 372.587 632.6 344C632.6 315.413 639.213 294.187 652.44 280.32C665.88 266.24 687.427 259.2 717.08 259.2C746.947 259.2 767.533 263.253 778.84 271.36C790.147 279.467 795.8 294.613 795.8 316.8C795.8 335.573 788.973 349.12 775.32 357.44C761.88 365.547 737.24 369.6 701.4 369.6ZM701.4 319.36V332.48H714.52C722.2 332.48 727.747 331.733 731.16 330.24C734.787 328.533 736.6 324.8 736.6 319.04V305.92H723.48C715.8 305.92 710.147 306.773 706.52 308.48C703.107 309.973 701.4 313.6 701.4 319.36ZM895.778 259.2C946.978 259.2 972.578 276.8 972.578 312V424H940.578L922.338 405.76C916.151 413.013 907.724 418.667 897.058 422.72C886.391 426.773 876.258 428.8 866.658 428.8C857.271 428.8 849.698 428.053 843.938 426.56C838.178 425.067 832.524 422.507 826.978 418.88C814.818 411.2 808.738 396.907 808.738 376C808.738 337.6 837.751 318.4 895.778 318.4H908.578V306.88C901.751 306.453 896.098 306.24 891.618 306.24C867.511 306.24 846.818 309.12 829.538 314.88L821.858 269.12C843.191 262.507 867.831 259.2 895.778 259.2ZM873.378 368.96V382.08H886.498C895.884 382.08 901.858 381.013 904.418 378.88C907.191 376.747 908.578 373.973 908.578 370.56V355.52H895.458C887.778 355.52 882.124 356.373 878.498 358.08C875.084 359.573 873.378 363.2 873.378 368.96ZM1065.5 211.2V378.24C1072.33 379.52 1077.55 380.267 1081.18 380.48L1078.3 427.52C1050.99 427.52 1032.97 425.92 1024.22 422.72C1013.34 418.667 1006.62 413.547 1004.06 407.36C1002.35 403.52 1001.5 399.04 1001.5 393.92V216L1065.5 211.2ZM1090.65 305.28V264H1106.65V238.4L1170.65 222.4V264H1192.73V305.28H1170.65V378.24C1176.2 379.307 1182.49 380.053 1189.53 380.48L1186.65 427.52C1157.42 427.52 1138.44 425.92 1129.69 422.72C1118.81 418.88 1111.98 413.76 1109.21 407.36C1107.5 403.52 1106.65 399.04 1106.65 393.92V305.28H1090.65ZM1236.65 407.36L1200.81 264H1264.81L1282.41 368H1285.61L1303.21 264H1367.21L1327.21 424C1321.24 444.907 1313.77 458.88 1304.81 465.92C1295.85 473.173 1282.95 476.8 1266.09 476.8H1204.01V435.2L1234.09 429.44C1249.45 426.027 1259.48 422.187 1264.17 417.92C1266.73 415.573 1268.87 412.693 1270.57 409.28L1270.25 407.36H1236.65ZM1690.46 369.6V380.8C1696.86 381.44 1703.26 381.76 1709.66 381.76C1729.5 381.76 1749.56 378.56 1769.82 372.16L1777.5 419.2C1753.61 425.6 1729.93 428.8 1706.46 428.8C1676.6 428.8 1654.94 421.867 1641.5 408C1628.28 393.92 1621.66 372.587 1621.66 344C1621.66 315.413 1628.28 294.187 1641.5 280.32C1654.94 266.24 1676.49 259.2 1706.14 259.2C1736.01 259.2 1756.6 263.253 1767.9 271.36C1779.21 279.467 1784.86 294.613 1784.86 316.8C1784.86 335.573 1778.04 349.12 1764.38 357.44C1750.94 365.547 1726.3 369.6 1690.46 369.6ZM1690.46 319.36V332.48H1703.58C1711.26 332.48 1716.81 331.733 1720.22 330.24C1723.85 328.533 1725.66 324.8 1725.66 319.04V305.92H1712.54C1704.86 305.92 1699.21 306.773 1695.58 308.48C1692.17 309.973 1690.46 313.6 1690.46 319.36ZM1926.44 376L1930.28 422.08C1919.19 426.56 1904.89 428.8 1887.4 428.8C1857.53 428.8 1835.88 421.867 1822.44 408C1809.21 393.92 1802.6 372.587 1802.6 344C1802.6 315.413 1809.21 294.187 1822.44 280.32C1835.88 266.24 1857.53 259.2 1887.4 259.2C1905.96 259.2 1920.25 261.44 1930.28 265.92L1922.6 309.44C1911.29 307.093 1902.33 305.92 1895.72 305.92C1879.51 305.92 1871.4 311.573 1871.4 322.88V380.16C1877.59 381.44 1885.48 382.08 1895.08 382.08C1904.89 382.08 1915.35 380.053 1926.44 376ZM2031.72 259.2C2082.92 259.2 2108.52 276.8 2108.52 312V424H2076.52L2058.28 405.76C2052.09 413.013 2043.66 418.667 2033 422.72C2022.33 426.773 2012.2 428.8 2002.6 428.8C1993.21 428.8 1985.64 428.053 1979.88 426.56C1974.12 425.067 1968.46 422.507 1962.92 418.88C1950.76 411.2 1944.68 396.907 1944.68 376C1944.68 337.6 1973.69 318.4 2031.72 318.4H2044.52V306.88C2037.69 306.453 2032.04 306.24 2027.56 306.24C2003.45 306.24 1982.76 309.12 1965.48 314.88L1957.8 269.12C1979.13 262.507 2003.77 259.2 2031.72 259.2ZM2009.32 368.96V382.08H2022.44C2031.82 382.08 2037.8 381.013 2040.36 378.88C2043.13 376.747 2044.52 373.973 2044.52 370.56V355.52H2031.4C2023.72 355.52 2018.06 356.373 2014.44 358.08C2011.02 359.573 2009.32 363.2 2009.32 368.96ZM2201.44 211.2V378.24C2208.26 379.52 2213.49 380.267 2217.12 380.48L2214.24 427.52C2186.93 427.52 2168.9 425.92 2160.16 422.72C2149.28 418.667 2142.56 413.547 2140 407.36C2138.29 403.52 2137.44 399.04 2137.44 393.92V216L2201.44 211.2ZM2300.19 211.2V378.24C2307.01 379.52 2312.24 380.267 2315.87 380.48L2312.99 427.52C2285.68 427.52 2267.65 425.92 2258.91 422.72C2248.03 418.667 2241.31 413.547 2238.75 407.36C2237.04 403.52 2236.19 399.04 2236.19 393.92V216L2300.19 211.2Z" fill="#1F96AA"/>
<path d="M1605.59 424H1535.19L1508.95 364.48H1495.19V424H1431.19V224H1531.99C1577.85 224 1600.79 247.36 1600.79 294.08C1600.79 326.08 1590.87 347.2 1571.03 357.44L1605.59 424ZM1495.19 275.2V315.2H1509.91C1517.59 315.2 1523.13 314.453 1526.55 312.96C1530.17 311.253 1531.99 307.52 1531.99 301.76V288.64C1531.99 282.88 1530.17 279.253 1526.55 277.76C1523.13 276.053 1517.59 275.2 1509.91 275.2H1495.19Z" fill="#E8EDF2"/>
<path d="M276.671 69.4438C283.431 72.5176 288.454 77.7621 293.86 83.0356C301.733 90.6087 309.715 97.927 317.986 104.965C327.476 113.065 336.569 121.584 345.596 130.303C352.973 137.422 360.49 144.311 368.108 151.116C374.614 157.015 380.979 163.087 387.358 169.152C393.159 174.656 399.016 180.061 404.963 185.374C413.42 192.944 421.628 200.804 429.836 208.698C437.306 215.865 444.906 222.824 452.6 229.697C458.087 234.671 463.471 239.766 468.85 244.88C478.66 254.2 488.616 263.296 498.671 272.292C502.091 275.373 505.506 278.459 508.922 281.544C509.686 282.233 509.686 282.233 513.549 285.72C514.653 286.716 515.758 287.713 516.895 288.74C511.287 294.926 502.819 293.054 495.231 293.064C492.221 293.053 489.211 293.029 486.202 292.994C483.157 292.975 480.113 292.998 477.069 293.065C460.878 293.416 447.641 293.477 435.127 281.051C431.898 277.618 428.847 274.078 425.776 270.465C423.666 268.409 421.531 266.383 419.356 264.411C417.63 262.775 415.904 261.138 414.179 259.5C403.182 249.081 392.123 238.746 381.044 228.433C373.545 232.945 367.516 238.67 361.164 244.88C358.956 247.016 356.747 249.15 354.537 251.284C353.431 252.354 352.324 253.423 351.185 254.526C346.271 259.248 341.297 263.891 336.313 268.523C329.106 275.227 321.922 281.957 314.776 288.74C317.341 296.194 322.159 300.313 327.615 305.187C329.579 306.98 331.542 308.774 333.504 310.569C334.518 311.491 335.532 312.413 336.577 313.362C341.438 317.809 346.228 322.347 351.016 326.888C351.974 327.794 352.931 328.699 353.917 329.633C362.096 337.377 370.239 345.167 378.38 352.96C387.259 361.455 396.174 369.901 405.106 378.328C409.021 382.023 412.929 385.726 416.832 389.436C425.5 397.668 434.181 405.86 443.068 413.807C450.415 420.384 457.577 427.165 464.709 434.023C490.337 458.656 490.337 458.656 500.328 466.004C500.875 467.813 501.421 469.622 501.985 471.486C505.402 473.656 505.402 473.656 508.612 475.141C508.612 475.744 508.612 476.347 508.612 476.968C499.478 477.333 490.347 477.596 481.209 477.772C478.107 477.845 475.006 477.944 471.906 478.071C442.842 479.234 442.842 479.234 432.642 470.28C430.296 467.697 428.001 465.057 425.776 462.349C423.784 460.434 421.769 458.549 419.725 456.702C417.909 454.97 416.094 453.235 414.282 451.498C407.454 444.994 400.586 438.572 393.573 432.31C384.147 423.864 375 415.085 365.843 406.29C359.892 400.575 353.907 394.906 347.91 389.25C339.914 381.703 331.942 374.126 323.991 366.521C322.97 365.546 321.95 364.571 320.898 363.566C315.491 358.397 310.097 353.211 304.719 348.004C303.611 346.935 302.504 345.867 301.363 344.766C299.257 342.733 297.155 340.696 295.057 338.653C289.192 333.002 283.248 328.066 276.671 323.461C276 324.158 276 324.158 272.601 327.68C262.418 338.175 252.111 348.288 241.239 357.919C236.913 361.836 232.762 365.902 228.626 370.062C221.497 377.229 214.104 383.947 206.604 390.635C202.329 394.54 198.23 398.584 194.146 402.728C187.683 409.235 180.977 415.222 174.058 421.117C164.999 428.836 156.479 436.921 148.114 445.552C136.869 456.866 136.869 456.866 132.537 456.866C132.537 458.072 132.537 459.279 132.537 460.521C130.175 463.277 130.175 463.277 127.049 466.232C126.03 467.217 125.012 468.202 123.962 469.216C120.94 471.486 120.94 471.486 115.97 471.486C115.423 473.295 114.876 475.104 114.313 476.968C93.8801 476.968 73.4473 476.968 53.0145 476.968C53.0145 471.486 53.0145 471.486 56.5738 467.174C58.1328 465.582 59.6918 463.989 61.2981 462.349C62.7887 460.794 64.2794 459.239 65.8152 457.637C75.3104 447.982 84.9509 438.721 95.0148 429.783C99.3574 425.84 103.53 421.755 107.686 417.576C114.684 410.548 121.917 403.93 129.269 397.36C137.772 389.668 146.078 381.723 154.408 373.805C160.22 368.286 166.047 362.786 171.872 357.283C176.771 352.652 181.667 348.017 186.555 343.371C195.222 335.141 203.9 326.951 212.784 319.007C223.277 309.602 233.448 299.799 243.637 290C248.841 284.999 254.059 280.017 259.276 275.034C265.531 269.056 271.784 263.077 278.03 257.087C287.818 247.706 297.625 238.352 307.528 229.119C308.39 228.314 309.253 227.509 310.142 226.68C314.781 222.358 319.435 218.057 324.101 213.771C325.088 212.861 326.074 211.95 327.09 211.013C328.98 209.269 330.875 207.531 332.774 205.8C336.915 201.972 339.916 198.716 342.94 193.711C333.284 183.939 323.445 174.543 313.248 165.464C305.956 158.818 298.86 151.926 291.791 144.993C290.784 144.017 289.778 143.041 288.741 142.036C287.85 141.164 286.96 140.293 286.042 139.395C283.075 136.87 280.066 135.137 276.671 133.405C275.328 134.797 273.985 136.19 272.601 137.624C262.556 147.978 252.402 157.995 241.68 167.499C236.138 172.475 230.723 177.598 225.313 182.747C217.047 190.605 208.676 198.289 200.203 205.876C193.684 211.803 187.294 217.891 180.895 223.976C175.094 229.479 169.237 234.885 163.29 240.198C154.847 247.755 146.652 255.599 138.461 263.482C130.581 271.046 122.571 278.391 114.436 285.62C111 288.74 111 288.74 107.686 292.395C102.575 292.715 97.6139 292.817 92.5039 292.751C91.7524 292.749 91.7524 292.749 87.9494 292.736C83.1381 292.715 78.3274 292.669 73.5163 292.623C70.259 292.605 67.0017 292.588 63.7443 292.573C55.7496 292.533 47.7552 292.47 39.7607 292.395C39.7607 291.188 39.7607 289.982 39.7607 288.74C42.191 286.304 44.7362 284.008 47.3195 281.772C55.18 274.843 62.835 267.72 70.41 260.414C78.9894 252.162 87.6703 244.09 96.5162 236.186C101.672 231.535 106.754 226.796 111.828 222.037C118.366 215.907 124.943 209.844 131.605 203.877C139.663 196.644 147.545 189.206 155.413 181.726C162.686 174.828 170.08 168.114 177.527 161.445C183.028 156.444 188.435 151.331 193.835 146.197C202.101 138.34 210.472 130.655 218.945 123.069C225.455 117.15 231.834 111.071 238.224 104.996C245.739 97.868 253.368 90.9203 261.062 84.0279C266.344 79.2635 271.515 74.3728 276.671 69.4438Z" fill="#1F96AA"/>
<path d="M276.671 69.4434C283.431 72.5171 288.454 77.7616 293.86 83.0351C301.733 90.6082 309.715 97.9266 317.986 104.965C327.476 113.065 336.569 121.584 345.596 130.302C352.973 137.421 360.49 144.311 368.108 151.115C374.614 157.014 380.979 163.087 387.358 169.152C393.159 174.655 399.016 180.061 404.963 185.373C413.42 192.943 421.628 200.804 429.836 208.697C437.306 215.865 444.906 222.823 452.6 229.696C458.087 234.671 463.471 239.766 468.85 244.88C478.66 254.2 488.616 263.296 498.671 272.292C502.091 275.372 505.506 278.458 508.922 281.543C509.686 282.233 509.686 282.233 513.549 285.72C514.653 286.716 515.758 287.712 516.895 288.739C511.287 294.926 502.819 293.053 495.231 293.064C492.221 293.053 489.211 293.029 486.202 292.993C483.157 292.975 480.113 292.998 477.069 293.065C460.878 293.415 447.641 293.476 435.127 281.051C431.898 277.617 428.847 274.077 425.776 270.464C423.666 268.409 421.531 266.382 419.356 264.411C417.63 262.775 415.904 261.137 414.179 259.5C403.182 249.081 392.123 238.745 381.044 228.433C373.545 232.945 367.516 238.67 361.164 244.88C358.956 247.016 356.747 249.15 354.537 251.283C353.431 252.353 352.324 253.423 351.185 254.525C346.271 259.248 341.297 263.891 336.313 268.523C329.106 275.227 321.922 281.957 314.776 288.739C317.341 296.194 322.159 300.312 327.615 305.186C329.579 306.979 331.542 308.774 333.504 310.569C334.518 311.49 335.532 312.412 336.577 313.362C341.438 317.808 346.228 322.346 351.016 326.887C351.974 327.793 352.931 328.699 353.917 329.632C362.096 337.377 370.239 345.166 378.38 352.96C387.259 361.455 396.174 369.9 405.106 378.328C409.021 382.022 412.929 385.725 416.832 389.435C425.5 397.668 434.181 405.86 443.068 413.806C450.415 420.383 457.577 427.165 464.709 434.023C490.337 458.656 490.337 458.656 500.328 466.003C500.875 467.812 501.421 469.622 501.985 471.486C505.402 473.656 505.402 473.656 508.612 475.141C508.612 475.744 508.612 476.347 508.612 476.968C499.478 477.332 490.347 477.596 481.209 477.771C478.107 477.844 475.006 477.944 471.906 478.071C442.842 479.234 442.842 479.234 432.642 470.279C430.296 467.697 428.001 465.057 425.776 462.348C423.784 460.434 421.769 458.548 419.725 456.702C417.909 454.97 416.094 453.235 414.282 451.498C407.454 444.994 400.586 438.572 393.573 432.309C384.147 423.863 375 415.085 365.843 406.289C359.892 400.575 353.907 394.905 347.91 389.25C339.914 381.703 331.942 374.125 323.991 366.521C322.97 365.545 321.95 364.57 320.898 363.566C315.491 358.396 310.097 353.21 304.719 348.003C303.611 346.935 302.504 345.866 301.363 344.765C299.257 342.733 297.155 340.696 295.057 338.652C289.192 333.001 283.248 328.066 276.671 323.461C276 324.157 276 324.157 272.601 327.68C262.418 338.174 252.111 348.287 241.239 357.919C236.913 361.835 232.762 365.902 228.626 370.061C221.497 377.229 214.104 383.947 206.604 390.635C202.329 394.54 198.23 398.583 194.146 402.727C187.683 409.234 180.977 415.221 174.058 421.116C164.999 428.836 156.479 436.921 148.114 445.551C136.869 456.866 136.869 456.866 132.537 456.866C132.537 458.072 132.537 459.278 132.537 460.521C130.175 463.276 130.175 463.276 127.049 466.232C126.03 467.216 125.012 468.201 123.962 469.216C120.94 471.486 120.94 471.486 115.97 471.486C115.423 473.295 114.876 475.104 114.313 476.968C93.8801 476.968 73.4473 476.968 53.0145 476.968C53.0145 471.486 53.0145 471.486 56.5738 467.174C58.1328 465.581 59.6918 463.989 61.2981 462.348C62.7887 460.793 64.2794 459.239 65.8152 457.637C75.3104 447.982 84.9509 438.72 95.0148 429.782C99.3574 425.84 103.53 421.755 107.686 417.575C114.684 410.548 121.917 403.929 129.269 397.359C137.772 389.668 146.078 381.722 154.408 373.805C160.22 368.285 166.047 362.786 171.872 357.282C176.771 352.652 181.667 348.016 186.555 343.37C195.222 335.141 203.9 326.951 212.784 319.007C223.277 309.601 233.448 299.799 243.637 289.999C248.841 284.999 254.059 280.017 259.276 275.033C265.531 269.056 271.784 263.076 278.03 257.087C287.818 247.706 297.625 238.352 307.528 229.118C308.39 228.313 309.253 227.509 310.142 226.679C314.781 222.358 319.435 218.056 324.101 213.77C325.088 212.86 326.074 211.95 327.09 211.012C328.98 209.268 330.875 207.531 332.774 205.799C336.915 201.971 339.916 198.715 342.94 193.711C333.284 183.938 323.445 174.542 313.248 165.464C305.956 158.818 298.86 151.926 291.791 144.992C290.784 144.016 289.778 143.041 288.741 142.035C287.85 141.164 286.96 140.292 286.042 139.394C283.075 136.869 280.066 135.136 276.671 133.405C275.328 134.797 273.985 136.189 272.601 137.623C262.556 147.978 252.402 157.995 241.68 167.498C236.138 172.475 230.723 177.597 225.313 182.746C217.047 190.604 208.676 198.289 200.203 205.875C193.684 211.802 187.294 217.891 180.895 223.975C175.094 229.479 169.237 234.885 163.29 240.197C154.847 247.754 146.652 255.599 138.461 263.481C130.581 271.045 122.571 278.39 114.436 285.62C111 288.739 111 288.739 107.686 292.394C102.575 292.715 97.6139 292.817 92.5039 292.751C91.7524 292.748 91.7524 292.748 87.9494 292.735C83.1381 292.715 78.3274 292.669 73.5163 292.622C70.259 292.604 67.0017 292.587 63.7443 292.573C55.7496 292.532 47.7552 292.469 39.7607 292.394C39.7607 291.188 39.7607 289.982 39.7607 288.739C42.191 286.304 44.7362 284.008 47.3195 281.772C55.18 274.842 62.835 267.719 70.41 260.413C78.9894 252.161 87.6703 244.09 96.5162 236.185C101.672 231.535 106.754 226.795 111.828 222.037C118.366 215.906 124.943 209.843 131.605 203.876C139.663 196.644 147.545 189.205 155.413 181.726C162.686 174.827 170.08 168.113 177.527 161.445C183.028 156.443 188.435 151.33 193.835 146.197C202.101 138.339 210.472 130.655 218.945 123.068C225.455 117.15 231.834 111.07 238.224 104.996C245.739 97.8675 253.368 90.9198 261.062 84.0274C266.344 79.263 271.515 74.3723 276.671 69.4434Z" fill="#1F96AA"/>
<path d="M475.685 46.7147C489.786 55.4505 501.073 68.5099 506.347 85.6411C509.048 102.975 508.166 118.59 500.173 134.019C490.922 148.28 480.31 155.386 465.538 160.817C446.879 162.322 433.45 160.824 418.735 147.454C408.269 136.691 401.585 126.152 400.427 110.005C400.395 107.526 400.389 105.046 400.408 102.567C400.417 101.27 400.427 99.9729 400.436 98.6368C400.779 82.3707 405.606 70.2502 415.836 58.479C420.586 54.3676 425.506 50.8146 430.747 47.5142C431.693 46.8263 432.639 46.1384 433.614 45.4297C445.327 40.5374 464.202 41.5278 475.685 46.7147Z" fill="#E8EDF2"/>
</svg>
